<?xml version="1.0" standalone="no"?>
<!DOCTYPE svg PUBLIC "-//W3C//DTD SVG 20010904//EN"
 "http://www.w3.org/TR/2001/REC-SVG-20010904/DTD/svg10.dtd">
<svg version="1.0" xmlns="http://www.w3.org/2000/svg"
 width="256.000000pt" height="256.000000pt" viewBox="0 0 256.000000 256.000000"
 preserveAspectRatio="xMidYMid meet">
<metadata>
Created by potrace 1.14, written by Peter Selinger 2001-2017
</metadata>
<g transform="translate(0.000000,256.000000) scale(0.100000,-0.100000)"
fill="#000000" stroke="none">
<path d="M1312 2170 c-126 -30 -235 -92 -328 -185 -45 -44 -89 -95 -98 -113
-18 -36 -29 -38 -77 -18 -19 7 -66 14 -105 15 -171 5 -332 -115 -372 -279 -7
-28 -18 -39 -57 -60 -64 -33 -175 -142 -207 -205 -62 -121 -81 -253 -53 -373
42 -178 189 -331 374 -388 38 -12 191 -14 890 -14 558 0 859 4 890 11 322 74
483 421 328 712 -57 108 -169 199 -284 233 -47 14 -53 19 -54 42 -7 218 -169
460 -379 567 -135 68 -322 90 -468 55z"/>
</g>
</svg>
