<?xml version="1.0" encoding="UTF-8" standalone="no"?><!DOCTYPE svg PUBLIC "-//W3C//DTD SVG 1.1//EN" "http://www.w3.org/Graphics/SVG/1.1/DTD/svg11.dtd"><svg width="100%" height="100%" viewBox="0 0 300 300" version="1.1" xmlns="http://www.w3.org/2000/svg" xmlns:xlink="http://www.w3.org/1999/xlink" xml:space="preserve" xmlns:serif="http://www.serif.com/" style="fill-rule:evenodd;clip-rule:evenodd;stroke-linejoin:round;stroke-miterlimit:2;"><g id="XMLID_197_"><path id="XMLID_221_" d="M181.122,299.679c10.02,-0 18.758,-8.738 18.758,-18.758l0,-43.808l12.525,-0c7.516,-0 12.525,-5.011 12.525,-12.525l0,-125.122l-150.181,-0l-0,125.123c-0,7.515 5.01,12.525 12.525,12.525l12.526,-0l-0,43.808c-0,10.02 8.736,18.758 18.758,18.758c10.019,-0 18.756,-8.738 18.756,-18.758l-0,-43.808l25.051,-0l-0,43.808c-0.001,10.019 8.737,18.757 18.757,18.757Z" style="fill:#fff;fill-rule:nonzero;"/><path id="XMLID_222_" d="M256.214,224.589c10.02,0 18.756,-8.737 18.756,-18.758l0,-87.615c0,-9.967 -8.736,-18.75 -18.756,-18.75c-10.021,0 -18.758,8.783 -18.758,18.75l0,87.615c-0,10.02 8.736,18.758 18.758,18.758Z" style="fill:#fff;fill-rule:nonzero;"/><path id="XMLID_223_" d="M43.466,224.589c10.021,0 18.758,-8.737 18.758,-18.758l0,-87.615c0,-9.967 -8.736,-18.75 -18.758,-18.75c-10.02,0 -18.756,8.783 -18.756,18.75l0,87.615c-0,10.02 8.736,18.758 18.756,18.758Z" style="fill:#fff;fill-rule:nonzero;"/><path id="XMLID_224_" d="M209.899,1.89c-2.504,-2.52 -6.232,-2.52 -8.736,-0l-16.799,16.743l-0.775,0.774c-9.961,-4.988 -21.129,-7.479 -33.566,-7.503c-0.061,-0 -0.121,-0.002 -0.182,-0.002l-0.002,-0c-0.063,-0 -0.121,0.002 -0.184,0.002c-12.436,0.024 -23.604,2.515 -33.564,7.503l-0.777,-0.774l-16.798,-16.743c-2.506,-2.52 -6.232,-2.52 -8.736,-0c-2.506,2.506 -2.506,6.225 0,8.729l16.25,16.253c-5.236,3.496 -9.984,7.774 -14.113,12.667c-9.885,11.717 -16.19,26.966 -17.057,43.488c-0.008,0.172 -0.025,0.342 -0.033,0.514c-0.053,1.125 -0.078,2.256 -0.078,3.391l150.181,0c0,-1.135 -0.027,-2.266 -0.078,-3.391c-0.008,-0.172 -0.025,-0.342 -0.035,-0.514c-0.865,-16.522 -7.172,-31.772 -17.057,-43.487c-4.127,-4.893 -8.877,-9.171 -14.113,-12.667l16.252,-16.253c2.506,-2.505 2.506,-6.224 -0,-8.73Zm-91.365,63.173c-5.182,0 -9.383,-4.201 -9.383,-9.383c-0,-5.182 4.201,-9.383 9.383,-9.383c5.182,0 9.383,4.201 9.383,9.383c-0,5.182 -4.201,9.383 -9.383,9.383Zm62.611,0c-5.182,0 -9.383,-4.201 -9.383,-9.383c-0,-5.182 4.201,-9.383 9.383,-9.383c5.182,0 9.383,4.201 9.383,9.383c-0,5.182 -4.201,9.383 -9.383,9.383Z" style="fill:#fff;fill-rule:nonzero;"/></g></svg>