<?xml version="1.0" encoding="UTF-8" standalone="no"?><!DOCTYPE svg PUBLIC "-//W3C//DTD SVG 1.1//EN" "http://www.w3.org/Graphics/SVG/1.1/DTD/svg11.dtd"><svg width="100%" height="100%" viewBox="0 0 24 24" version="1.1" xmlns="http://www.w3.org/2000/svg" xmlns:xlink="http://www.w3.org/1999/xlink" xml:space="preserve" xmlns:serif="http://www.serif.com/" style="fill-rule:evenodd;clip-rule:evenodd;stroke-linejoin:round;stroke-miterlimit:2;"><path d="M12.503,0c-0.155,0 -0.315,0.008 -0.479,0.021c-4.227,0.333 -3.106,4.807 -3.17,6.298c-0.077,1.093 -0.3,1.954 -1.051,3.021c-0.885,1.051 -2.127,2.75 -2.716,4.521c-0.278,0.832 -0.41,1.684 -0.287,2.489c-0.039,0.034 -0.076,0.068 -0.111,0.135c-0.26,0.268 -0.449,0.601 -0.662,0.839c-0.199,0.199 -0.485,0.267 -0.797,0.4c-0.313,0.136 -0.658,0.269 -0.864,0.681c-0.09,0.188 -0.136,0.393 -0.132,0.601c0,0.199 0.027,0.401 0.055,0.536c0.058,0.399 0.116,0.729 0.039,0.97c-0.248,0.68 -0.279,1.146 -0.105,1.485c0.174,0.334 0.535,0.469 0.939,0.601c0.811,0.2 1.91,0.135 2.775,0.599c0.926,0.467 1.866,0.671 2.616,0.47c0.526,-0.115 0.97,-0.463 1.208,-0.945c0.587,-0.003 1.23,-0.269 2.26,-0.334c0.699,-0.058 1.574,0.267 2.578,0.199c0.025,0.135 0.063,0.199 0.114,0.334l0.003,0.003c0.391,0.778 1.113,1.132 1.884,1.071c0.771,-0.06 1.592,-0.536 2.257,-1.306c0.631,-0.765 1.683,-1.084 2.378,-1.503c0.348,-0.199 0.629,-0.469 0.649,-0.853c0.023,-0.4 -0.199,-0.812 -0.714,-1.377l0,-0.097l-0.003,-0.003c-0.17,-0.2 -0.25,-0.535 -0.338,-0.926c-0.085,-0.401 -0.182,-0.786 -0.492,-1.046l-0.003,0c-0.059,-0.054 -0.123,-0.067 -0.188,-0.135c-0.056,-0.038 -0.121,-0.062 -0.19,-0.064c0.431,-1.278 0.264,-2.55 -0.173,-3.694c-0.533,-1.41 -1.465,-2.638 -2.175,-3.483c-0.796,-1.005 -1.576,-1.957 -1.561,-3.369c0.027,-2.152 0.237,-6.133 -3.544,-6.139Zm0.529,3.405l0.013,0c0.213,0 0.396,0.062 0.584,0.198c0.191,0.135 0.33,0.332 0.439,0.533c0.105,0.259 0.158,0.459 0.166,0.724c-0,-0.02 0.006,-0.04 0.006,-0.059l-0,0.104c-0.002,-0.007 -0.004,-0.015 -0.004,-0.021l-0.004,-0.024c-0.002,0.243 -0.053,0.483 -0.15,0.706c-0.047,0.125 -0.119,0.24 -0.213,0.335c-0.029,-0.016 -0.057,-0.03 -0.088,-0.042c-0.105,-0.045 -0.199,-0.064 -0.285,-0.133c-0.071,-0.028 -0.145,-0.051 -0.219,-0.066c0.049,-0.059 0.145,-0.133 0.182,-0.198c0.053,-0.128 0.082,-0.264 0.088,-0.402l-0,-0.019c0.002,-0.135 -0.018,-0.271 -0.061,-0.4c-0.045,-0.135 -0.101,-0.201 -0.183,-0.334c-0.084,-0.066 -0.167,-0.132 -0.267,-0.132l-0.016,0c-0.093,0 -0.176,0.03 -0.262,0.132c-0.095,0.094 -0.166,0.207 -0.205,0.334c-0.053,0.127 -0.084,0.264 -0.09,0.4l-0,0.019c0.002,0.089 0.008,0.179 0.02,0.267c-0.193,-0.067 -0.438,-0.135 -0.607,-0.202c-0.01,-0.065 -0.016,-0.132 -0.018,-0.199l-0,-0.02c-0.008,-0.264 0.043,-0.526 0.15,-0.769c0.082,-0.219 0.232,-0.406 0.43,-0.533c0.171,-0.129 0.379,-0.199 0.594,-0.199Zm-2.962,0.059l0.036,0c0.142,0 0.27,0.048 0.399,0.135c0.146,0.129 0.264,0.288 0.344,0.465c0.09,0.199 0.141,0.401 0.153,0.667l-0,0.004c0.007,0.134 0.006,0.201 -0.002,0.266l-0,0.08c-0.03,0.007 -0.056,0.018 -0.083,0.024c-0.152,0.055 -0.274,0.135 -0.393,0.2c0.012,-0.089 0.013,-0.179 0.003,-0.267l-0,-0.015c-0.012,-0.133 -0.039,-0.199 -0.082,-0.333c-0.031,-0.102 -0.088,-0.193 -0.166,-0.267c-0.049,-0.045 -0.115,-0.068 -0.183,-0.064l-0.021,0c-0.071,0.006 -0.13,0.041 -0.186,0.132c-0.064,0.077 -0.105,0.171 -0.12,0.27c-0.027,0.108 -0.035,0.219 -0.023,0.331l-0,0.014c0.012,0.135 0.037,0.201 0.081,0.334c0.045,0.134 0.097,0.2 0.165,0.268c0.011,0.009 0.021,0.018 0.034,0.024c-0.07,0.057 -0.117,0.07 -0.176,0.136c-0.037,0.028 -0.08,0.06 -0.131,0.068c-0.104,-0.125 -0.196,-0.26 -0.275,-0.402c-0.096,-0.21 -0.146,-0.438 -0.155,-0.667c-0.017,-0.226 0.011,-0.452 0.08,-0.668c0.055,-0.197 0.152,-0.379 0.283,-0.535c0.128,-0.133 0.26,-0.2 0.418,-0.2Zm1.371,1.706c0.331,0 0.732,0.065 1.215,0.399c0.293,0.2 0.523,0.269 1.053,0.468l0.003,0c0.255,0.136 0.405,0.266 0.478,0.399l-0,-0.131c0.073,0.147 0.078,0.318 0.016,0.47c-0.123,0.311 -0.516,0.644 -1.064,0.843l-0,0.002c-0.268,0.135 -0.501,0.333 -0.775,0.465c-0.276,0.135 -0.588,0.292 -1.012,0.267c-0.152,0.008 -0.305,-0.015 -0.448,-0.067c-0.11,-0.06 -0.218,-0.126 -0.322,-0.198c-0.195,-0.135 -0.363,-0.332 -0.612,-0.465l-0,-0.005l-0.005,0c-0.4,-0.246 -0.616,-0.512 -0.686,-0.711c-0.069,-0.268 -0.005,-0.469 0.193,-0.6c0.224,-0.135 0.38,-0.271 0.483,-0.336c0.104,-0.074 0.143,-0.102 0.176,-0.131l0.002,0l-0,-0.003c0.169,-0.202 0.436,-0.469 0.839,-0.601c0.139,-0.036 0.294,-0.065 0.466,-0.065Zm2.799,2.143c0.359,1.417 1.197,3.475 1.736,4.473c0.286,0.534 0.855,1.659 1.102,3.024c0.156,-0.005 0.329,0.018 0.513,0.064c0.646,-1.671 -0.546,-3.467 -1.089,-3.966c-0.221,-0.201 -0.232,-0.335 -0.123,-0.335c0.589,0.534 1.365,1.572 1.646,2.757c0.129,0.535 0.159,1.104 0.021,1.67c0.067,0.028 0.135,0.061 0.205,0.067c1.032,0.534 1.413,0.938 1.23,1.537l-0,-0.043c-0.061,-0.003 -0.12,0 -0.181,0l-0.015,0c0.151,-0.467 -0.182,-0.825 -1.065,-1.224c-0.915,-0.4 -1.646,-0.336 -1.771,0.465c-0.007,0.043 -0.012,0.066 -0.017,0.135c-0.068,0.023 -0.139,0.053 -0.209,0.064c-0.43,0.268 -0.662,0.669 -0.793,1.187c-0.13,0.533 -0.17,1.156 -0.205,1.869l-0,0.003c-0.021,0.334 -0.171,0.838 -0.319,1.351c-1.5,1.072 -3.58,1.538 -5.349,0.334c-0.111,-0.193 -0.246,-0.374 -0.402,-0.533c-0.074,-0.125 -0.168,-0.237 -0.275,-0.334c0.182,0 0.338,-0.029 0.465,-0.067c0.145,-0.067 0.257,-0.188 0.314,-0.334c0.108,-0.267 -0,-0.697 -0.345,-1.163c-0.345,-0.467 -0.931,-0.995 -1.788,-1.521c-0.63,-0.399 -0.986,-0.87 -1.15,-1.396c-0.165,-0.534 -0.143,-1.085 -0.015,-1.645c0.245,-1.07 0.873,-2.11 1.274,-2.763c0.107,-0.065 0.037,0.135 -0.408,0.974c-0.396,0.751 -1.141,2.497 -0.122,3.854c0.038,-0.989 0.258,-1.965 0.647,-2.876c0.564,-1.278 1.743,-3.504 1.836,-5.268c0.048,0.036 0.217,0.135 0.289,0.202c0.218,0.133 0.38,0.333 0.59,0.465c0.211,0.201 0.477,0.335 0.876,0.335c0.039,0.003 0.075,0.006 0.111,0.006c0.411,0 0.729,-0.134 0.996,-0.268c0.29,-0.134 0.521,-0.334 0.74,-0.4l0.005,0c0.467,-0.135 0.836,-0.402 1.045,-0.7Zm2.186,8.958c0.037,0.601 0.343,1.245 0.882,1.377c0.588,0.134 1.434,-0.333 1.791,-0.765l0.211,-0.009c0.315,-0.008 0.577,0.01 0.847,0.267l0.003,0.003c0.208,0.199 0.305,0.531 0.391,0.876c0.085,0.401 0.154,0.78 0.409,1.066c0.486,0.527 0.645,0.906 0.636,1.14l0.003,-0.006l0,0.018l-0.003,-0.012c-0.015,0.262 -0.185,0.396 -0.498,0.595c-0.63,0.401 -1.746,0.712 -2.457,1.57c-0.618,0.737 -1.371,1.139 -2.036,1.191c-0.664,0.053 -1.237,-0.2 -1.574,-0.898l-0.005,-0.003c-0.21,-0.401 -0.12,-1.025 0.056,-1.69c0.176,-0.668 0.428,-1.345 0.463,-1.898c0.037,-0.714 0.076,-1.335 0.195,-1.814c0.12,-0.465 0.308,-0.797 0.641,-0.984l0.045,-0.022l0,-0.002Zm-10.815,0.049l0.01,0c0.053,0 0.105,0.005 0.157,0.014c0.376,0.055 0.706,0.333 1.023,0.752l0.91,1.664l0.003,0.003c0.243,0.533 0.754,1.064 1.189,1.638c0.434,0.598 0.77,1.131 0.729,1.57l0,0.006c-0.057,0.744 -0.479,1.148 -1.125,1.294c-0.645,0.135 -1.52,0.002 -2.395,-0.464c-0.968,-0.536 -2.118,-0.469 -2.857,-0.602c-0.369,-0.066 -0.611,-0.201 -0.723,-0.401c-0.111,-0.199 -0.113,-0.601 0.123,-1.23l0,-0.003l0.002,-0.003c0.117,-0.334 0.03,-0.753 -0.027,-1.119c-0.055,-0.401 -0.083,-0.709 0.043,-0.94c0.16,-0.334 0.396,-0.399 0.689,-0.533c0.295,-0.135 0.641,-0.202 0.916,-0.469l0.002,0l0,-0.003c0.256,-0.268 0.445,-0.601 0.668,-0.838c0.19,-0.201 0.38,-0.336 0.663,-0.336Zm7.159,-9.074c-0.435,0.201 -0.945,0.535 -1.488,0.535c-0.542,0 -0.97,-0.267 -1.279,-0.466c-0.155,-0.134 -0.28,-0.268 -0.374,-0.335c-0.164,-0.134 -0.144,-0.334 -0.074,-0.334c0.109,0.016 0.129,0.135 0.199,0.201c0.096,0.066 0.215,0.199 0.361,0.333c0.291,0.2 0.68,0.467 1.166,0.467c0.485,0 1.053,-0.267 1.398,-0.466c0.195,-0.135 0.445,-0.334 0.648,-0.467c0.156,-0.137 0.149,-0.268 0.279,-0.268c0.129,0.016 0.034,0.134 -0.147,0.333c-0.181,0.135 -0.461,0.335 -0.69,0.468l0,-0.001l0.001,0Zm-1.082,-1.584l0,-0.022c-0.006,-0.019 0.013,-0.042 0.029,-0.05c0.074,-0.043 0.18,-0.027 0.26,0.004c0.063,0 0.16,0.067 0.15,0.135c-0.006,0.049 -0.085,0.066 -0.135,0.066c-0.055,0 -0.092,-0.043 -0.141,-0.068c-0.052,-0.018 -0.146,-0.008 -0.163,-0.065Zm-0.551,0c-0.02,0.058 -0.113,0.049 -0.166,0.066c-0.047,0.025 -0.086,0.068 -0.139,0.068c-0.051,0 -0.131,-0.019 -0.137,-0.068c-0.009,-0.066 0.088,-0.133 0.15,-0.133c0.081,-0.031 0.184,-0.047 0.259,-0.005c0.019,0.009 0.036,0.03 0.03,0.05l0,0.021l0.003,0l0,0.001Z" style="fill:#fff;fill-rule:nonzero;"/></svg>