<?xml version="1.0" encoding="UTF-8" standalone="no"?><!DOCTYPE svg PUBLIC "-//W3C//DTD SVG 1.1//EN" "http://www.w3.org/Graphics/SVG/1.1/DTD/svg11.dtd"><svg width="100%" height="100%" viewBox="0 0 305 305" version="1.1" xmlns="http://www.w3.org/2000/svg" xmlns:xlink="http://www.w3.org/1999/xlink" xml:space="preserve" xmlns:serif="http://www.serif.com/" style="fill-rule:evenodd;clip-rule:evenodd;stroke-linejoin:round;stroke-miterlimit:2;"><g id="XMLID_108_"><path id="XMLID_109_" d="M139.999,25.775l0,116.724c0,1.381 1.119,2.5 2.5,2.5l159.961,0c1.381,0 2.5,-1.119 2.5,-2.5l-0,-139.999c-0,-0.726 -0.315,-1.416 -0.864,-1.891c-0.548,-0.475 -1.275,-0.687 -1.996,-0.583l-159.961,23.275c-1.229,0.179 -2.14,1.233 -2.14,2.474Z" style="fill:#fff;fill-rule:nonzero;"/><path id="XMLID_110_" d="M122.501,279.948c0.601,0 1.186,-0.216 1.644,-0.616c0.544,-0.475 0.856,-1.162 0.856,-1.884l0,-114.948c0,-1.381 -1.119,-2.5 -2.5,-2.5l-119.909,0c-0.663,0 -1.299,0.263 -1.768,0.732c-0.469,0.469 -0.732,1.105 -0.732,1.768l0.006,98.515c0,1.25 0.923,2.307 2.16,2.477l119.903,16.434c0.113,0.014 0.227,0.022 0.34,0.022Z" style="fill:#fff;fill-rule:nonzero;"/><path id="XMLID_138_" d="M2.609,144.999l119.892,0c1.381,0 2.5,-1.119 2.5,-2.5l0,-113.818c0,-0.722 -0.312,-1.408 -0.855,-1.883c-0.543,-0.475 -1.261,-0.693 -1.981,-0.594l-120.001,16.296c-1.241,0.169 -2.165,1.228 -2.164,2.48l0.109,97.521c0.002,1.38 1.121,2.498 2.5,2.498Z" style="fill:#fff;fill-rule:nonzero;"/><path id="XMLID_169_" d="M302.46,305c0.599,0 1.182,-0.215 1.64,-0.613c0.546,-0.475 0.86,-1.163 0.86,-1.887l0.04,-140c0,-0.663 -0.263,-1.299 -0.732,-1.768c-0.469,-0.469 -1.105,-0.732 -1.768,-0.732l-160.001,0c-1.381,0 -2.5,1.119 -2.5,2.5l0,117.496c0,1.246 0.918,2.302 2.151,2.476l159.961,22.504c0.117,0.016 0.233,0.024 0.349,0.024Z" style="fill:#fff;fill-rule:nonzero;"/></g></svg>